<svg id="svg" version="1.1" xmlns="http://www.w3.org/2000/svg" width="400" height="388.8888888888889" viewBox="0, 0, 400,388.8888888888889">
    <g id="svgg">
        <path id="path0"
              d="M0.000 194.553 L 0.000 389.105 200.000 389.105 L 400.000 389.105 400.000 194.553 L 400.000 0.000 200.000 0.000 L 0.000 0.000 0.000 194.553 M245.525 14.094 C 246.702 14.430,249.116 14.895,250.889 15.128 C 252.662 15.361,254.445 15.729,254.852 15.947 C 255.258 16.164,256.186 16.342,256.913 16.342 C 257.640 16.342,259.359 16.675,260.732 17.080 C 262.106 17.486,264.630 18.202,266.342 18.670 C 268.054 19.138,270.007 19.769,270.681 20.072 C 271.356 20.375,272.242 20.623,272.650 20.623 C 273.058 20.623,273.732 20.880,274.147 21.194 C 274.563 21.508,275.256 21.771,275.687 21.778 C 276.118 21.784,277.124 22.140,277.923 22.568 C 278.721 22.996,279.704 23.346,280.107 23.346 C 280.509 23.346,281.057 23.609,281.323 23.930 C 281.589 24.251,281.988 24.514,282.209 24.514 C 282.630 24.514,285.626 25.843,288.911 27.487 C 290.668 28.366,299.065 33.182,301.367 34.630 C 303.151 35.753,305.662 37.534,308.066 39.382 C 309.399 40.407,310.659 41.245,310.867 41.245 C 311.075 41.245,311.385 41.464,311.557 41.732 C 311.728 41.999,312.918 43.084,314.202 44.143 C 315.486 45.201,316.822 46.340,317.169 46.672 C 317.517 47.004,318.725 48.064,319.852 49.027 C 325.442 53.801,336.733 66.516,340.931 72.763 C 341.290 73.298,342.383 74.874,343.358 76.265 C 344.333 77.656,345.133 78.982,345.134 79.212 C 345.135 79.443,345.535 80.006,346.022 80.463 C 346.510 80.921,347.494 82.396,348.209 83.741 C 348.925 85.086,349.883 86.829,350.339 87.615 C 352.289 90.977,353.307 93.020,353.307 93.573 C 353.307 93.898,353.467 94.163,353.662 94.163 C 354.001 94.163,354.676 95.458,356.451 99.514 C 356.896 100.530,357.597 102.081,358.008 102.961 C 358.419 103.840,358.755 104.812,358.755 105.120 C 358.755 105.429,358.912 105.847,359.104 106.051 C 359.414 106.378,360.262 108.486,361.836 112.840 C 362.107 113.589,362.505 114.903,362.721 115.759 C 362.937 116.615,363.344 117.840,363.626 118.482 C 363.907 119.125,364.263 120.350,364.415 121.206 C 364.568 122.062,364.829 122.938,364.995 123.152 C 365.162 123.366,365.483 124.548,365.710 125.780 C 365.937 127.011,366.279 128.324,366.472 128.698 C 366.664 129.072,366.942 130.324,367.090 131.481 C 367.237 132.638,367.611 134.074,367.920 134.672 C 368.230 135.270,368.482 136.369,368.482 137.115 C 368.482 137.861,368.662 138.943,368.881 139.520 C 369.244 140.473,369.526 141.971,370.819 149.805 C 371.048 151.196,371.498 153.735,371.819 155.447 C 372.139 157.160,372.566 160.924,372.769 163.813 C 372.971 166.702,373.336 170.379,373.581 171.984 C 374.192 175.985,374.191 213.130,373.580 217.121 C 373.334 218.726,372.969 222.315,372.767 225.097 C 372.566 227.879,372.135 231.381,371.810 232.879 C 371.486 234.377,371.217 236.248,371.213 237.037 C 371.209 237.826,371.015 238.964,370.782 239.566 C 370.548 240.169,370.116 242.237,369.822 244.163 C 369.528 246.089,369.116 248.366,368.907 249.222 C 368.698 250.078,368.354 251.654,368.144 252.724 C 367.573 255.620,366.947 258.324,366.342 260.506 C 366.046 261.576,365.626 263.152,365.409 264.008 C 364.728 266.697,363.825 269.821,363.552 270.428 C 363.408 270.749,363.076 271.887,362.814 272.957 C 362.355 274.835,361.438 277.568,360.725 279.183 C 360.536 279.611,360.004 280.837,359.544 281.907 C 357.214 287.317,351.849 298.206,350.302 300.662 C 349.601 301.776,349.027 302.804,349.027 302.948 C 349.027 303.092,348.371 304.223,347.568 305.461 C 346.766 306.700,345.420 308.823,344.578 310.179 C 343.736 311.536,342.816 312.786,342.535 312.957 C 342.254 313.128,342.023 313.427,342.023 313.621 C 342.023 313.996,340.219 316.771,339.754 317.112 C 339.601 317.224,339.145 317.835,338.740 318.470 C 337.718 320.072,334.072 324.606,330.296 328.969 C 329.732 329.622,327.981 331.496,326.405 333.135 C 324.830 334.773,323.092 336.611,322.544 337.220 C 321.632 338.232,317.939 341.570,314.921 344.109 C 314.250 344.674,313.507 345.136,313.271 345.136 C 313.034 345.136,312.840 345.399,312.840 345.720 C 312.840 346.041,312.617 346.304,312.343 346.304 C 312.070 346.304,311.557 346.610,311.203 346.984 C 310.850 347.359,310.329 347.840,310.047 348.054 C 307.842 349.723,304.879 351.817,302.918 353.091 C 301.634 353.926,300.146 354.896,299.611 355.249 C 299.076 355.601,298.375 356.013,298.054 356.165 C 297.733 356.317,296.245 357.211,294.747 358.152 C 291.338 360.293,283.581 364.159,282.097 364.456 C 281.485 364.579,280.890 364.922,280.776 365.219 C 280.662 365.516,280.060 365.759,279.437 365.759 C 278.815 365.759,278.091 366.017,277.830 366.332 C 277.568 366.647,276.715 367.020,275.934 367.161 C 275.153 367.302,274.339 367.548,274.125 367.709 C 273.717 368.016,267.962 369.822,265.953 370.273 C 265.311 370.417,264.611 370.666,264.397 370.827 C 264.183 370.987,263.220 371.231,262.257 371.369 C 261.294 371.506,259.630 371.868,258.560 372.172 C 256.168 372.853,250.598 373.872,246.693 374.343 C 245.088 374.537,242.899 374.863,241.829 375.068 C 240.629 375.297,206.438 375.449,152.655 375.463 L 65.426 375.486 64.619 374.461 L 63.812 373.435 63.910 193.830 L 64.008 14.225 64.981 13.728 C 66.597 12.902,242.592 13.259,245.525 14.094 M177.043 72.050 C 175.224 72.478,173.166 73.077,172.471 73.379 C 171.775 73.682,170.637 74.176,169.942 74.476 C 166.243 76.074,164.758 76.885,163.023 78.256 C 161.972 79.087,161.046 79.767,160.964 79.767 C 160.704 79.767,156.031 84.497,156.028 84.763 C 156.026 84.904,155.457 85.639,154.763 86.397 C 154.069 87.155,153.290 88.118,153.031 88.537 C 151.432 91.127,150.584 92.781,150.584 93.306 C 150.584 93.637,150.298 94.223,149.950 94.608 C 149.601 94.993,149.183 95.970,149.021 96.779 C 148.859 97.587,148.400 99.387,148.001 100.778 C 147.092 103.950,146.845 283.613,147.744 287.354 C 148.715 291.393,149.526 293.994,150.046 294.736 C 150.342 295.159,150.584 295.801,150.584 296.163 C 150.584 296.526,150.715 296.881,150.875 296.952 C 151.295 297.139,153.307 300.297,153.307 300.770 C 153.307 300.988,153.447 301.167,153.617 301.167 C 153.787 301.167,154.580 302.025,155.379 303.073 C 158.162 306.723,163.244 311.227,165.856 312.360 C 166.445 312.615,166.926 313.003,166.926 313.221 C 166.926 313.440,167.320 313.620,167.802 313.621 C 168.283 313.623,169.202 313.972,169.844 314.397 C 170.486 314.822,171.335 315.171,171.730 315.173 C 172.125 315.174,172.913 315.433,173.481 315.749 C 176.715 317.546,228.228 319.110,230.203 317.471 C 230.915 316.880,231.004 293.984,230.296 293.546 C 230.052 293.395,225.631 293.206,220.471 293.125 C 211.238 292.980,207.176 292.575,205.642 291.645 C 205.214 291.386,204.349 291.047,203.719 290.892 C 201.438 290.329,195.331 284.320,195.331 282.638 C 195.331 282.343,195.180 282.101,194.996 282.101 C 194.812 282.101,194.243 280.919,193.732 279.475 L 192.802 276.848 192.704 195.146 C 192.602 109.592,192.567 111.701,194.150 108.171 C 195.495 105.170,198.190 101.546,199.957 100.360 C 200.730 99.842,201.596 99.196,201.881 98.925 C 202.584 98.259,205.643 96.887,206.424 96.887 C 206.771 96.887,207.438 96.668,207.905 96.401 C 208.505 96.058,211.964 95.857,219.650 95.720 L 230.545 95.525 230.545 83.463 L 230.545 71.401 205.447 71.336 C 181.576 71.274,180.189 71.309,177.043 72.050 "
              stroke="none" fill="#fbfbfb" fill-rule="evenodd"></path>
        <path id="path1"
              d="M72.068 15.245 C 71.701 15.390,70.775 15.522,70.009 15.537 C 69.040 15.556,68.332 15.869,67.675 16.568 L 66.732 17.572 66.616 191.957 C 66.552 287.869,66.611 367.452,66.748 368.808 C 67.048 371.800,67.712 372.508,70.259 372.556 C 71.488 372.579,72.219 372.804,72.553 373.260 C 73.157 374.085,74.565 374.129,75.347 373.346 C 75.668 373.025,76.362 372.763,76.888 372.763 C 77.415 372.763,77.946 373.025,78.069 373.346 C 78.267 373.861,83.785 373.922,124.847 373.865 C 150.452 373.829,170.350 373.697,169.066 373.573 C 165.795 373.256,193.887 372.763,215.239 372.763 C 230.833 372.763,233.074 372.836,233.074 373.346 C 233.074 373.806,233.591 373.924,235.506 373.903 C 237.158 373.884,237.688 373.774,237.160 373.558 C 235.555 372.904,240.871 372.032,248.054 371.769 C 255.317 371.504,256.450 371.346,256.178 370.638 C 255.869 369.834,257.009 369.408,260.895 368.873 C 262.821 368.608,265.398 367.974,266.623 367.464 C 267.847 366.954,269.256 366.537,269.755 366.537 C 270.253 366.537,270.854 366.344,271.089 366.109 C 271.325 365.874,272.192 365.692,273.016 365.705 C 275.557 365.745,276.595 365.399,276.727 364.468 C 276.805 363.920,277.401 363.354,278.405 362.874 C 279.261 362.465,280.271 361.980,280.651 361.796 C 281.030 361.612,282.129 361.353,283.093 361.221 C 284.057 361.089,284.939 360.830,285.053 360.646 C 285.167 360.462,285.950 360.311,286.793 360.311 C 288.265 360.311,288.327 360.260,288.327 359.044 C 288.327 357.988,288.537 357.686,289.591 357.224 C 290.287 356.920,291.085 356.352,291.364 355.962 C 291.644 355.572,292.346 355.253,292.925 355.253 C 293.546 355.253,294.170 354.942,294.450 354.494 C 294.720 354.062,295.557 353.630,296.392 353.492 C 298.319 353.172,300.000 352.521,300.000 352.093 C 300.000 351.905,300.163 351.751,300.363 351.751 C 300.563 351.751,301.625 350.875,302.724 349.805 C 303.822 348.735,304.928 347.856,305.182 347.851 C 305.435 347.847,306.080 347.500,306.615 347.082 C 307.150 346.663,307.850 346.316,308.171 346.310 C 308.704 346.300,309.715 345.400,313.619 341.457 C 314.368 340.701,315.108 340.081,315.264 340.080 C 315.421 340.079,315.917 339.355,316.367 338.472 C 316.818 337.589,317.653 336.450,318.224 335.941 C 318.794 335.432,319.895 334.387,320.671 333.619 C 321.446 332.850,322.422 332.020,322.839 331.772 C 325.916 329.946,327.257 328.859,327.880 327.685 C 328.276 326.939,328.910 325.739,329.291 325.016 C 329.671 324.294,330.273 323.591,330.629 323.455 C 332.077 322.899,334.861 318.987,335.772 316.227 C 336.016 315.486,336.560 314.569,336.980 314.189 C 337.400 313.809,337.743 313.276,337.743 313.006 C 337.743 312.535,339.113 311.073,342.227 308.221 C 343.015 307.499,343.910 306.309,344.216 305.577 C 344.521 304.845,345.029 304.148,345.343 304.027 C 345.657 303.906,345.915 303.520,345.916 303.168 C 345.918 302.411,347.617 298.968,348.434 298.065 C 348.749 297.717,349.262 296.709,349.574 295.824 C 349.886 294.940,350.503 293.855,350.946 293.412 C 351.389 292.969,351.751 292.345,351.751 292.024 C 351.751 291.545,353.309 288.298,354.832 285.603 C 355.014 285.282,355.544 283.969,356.012 282.685 C 356.994 279.984,358.837 276.268,359.194 276.266 C 359.774 276.263,361.479 270.216,361.479 268.161 C 361.479 266.940,363.405 259.068,364.208 257.004 C 364.458 256.362,364.825 254.712,365.024 253.338 C 365.223 251.963,365.568 250.618,365.792 250.349 C 366.226 249.826,366.742 246.661,367.117 242.218 C 367.788 234.279,369.445 226.824,370.407 227.419 C 370.845 227.690,371.120 224.651,370.721 223.939 C 370.549 223.631,370.587 219.651,370.805 215.095 C 371.322 204.310,371.314 185.869,370.787 174.173 C 370.548 168.866,370.515 164.738,370.710 164.543 C 371.148 164.104,370.844 161.416,370.387 161.698 C 369.514 162.238,366.940 148.025,366.929 142.601 C 366.927 141.742,366.603 140.429,366.207 139.683 C 365.812 138.937,365.382 137.451,365.252 136.381 C 365.122 135.311,364.551 133.035,363.985 131.323 C 362.769 127.652,361.892 123.911,361.613 121.206 C 361.502 120.136,360.989 118.368,360.473 117.276 C 359.956 116.185,359.533 115.038,359.533 114.728 C 359.533 114.417,359.354 113.985,359.136 113.766 C 358.917 113.547,358.233 111.893,357.616 110.089 C 356.999 108.285,355.604 105.089,354.517 102.985 C 352.709 99.490,352.568 99.031,352.881 97.639 C 353.202 96.212,353.132 96.019,351.783 94.587 C 349.935 92.624,348.664 90.745,346.890 87.354 C 346.106 85.856,345.154 84.280,344.774 83.852 C 344.394 83.424,343.751 82.324,343.345 81.408 C 342.752 80.069,342.441 79.771,341.759 79.890 C 341.131 79.999,340.852 79.802,340.683 79.129 C 340.557 78.629,340.020 77.935,339.488 77.587 C 338.956 77.238,338.521 76.665,338.521 76.313 C 338.521 75.962,338.171 75.455,337.743 75.188 C 337.315 74.920,336.965 74.323,336.965 73.860 C 336.965 73.397,336.693 72.718,336.360 72.350 C 336.028 71.983,335.728 71.313,335.694 70.861 C 335.660 70.409,335.497 70.039,335.331 70.039 C 335.166 70.039,334.547 69.295,333.956 68.385 C 333.364 67.476,332.382 66.206,331.772 65.564 C 331.163 64.922,330.340 63.691,329.943 62.829 C 329.547 61.966,328.558 60.741,327.746 60.105 C 326.935 59.469,325.880 58.568,325.403 58.102 C 324.925 57.636,324.005 56.942,323.357 56.559 C 322.709 56.176,322.179 55.749,322.179 55.609 C 322.179 55.469,320.866 54.024,319.261 52.398 C 317.656 50.772,316.342 49.261,316.342 49.040 C 316.342 48.819,316.062 48.638,315.720 48.638 C 315.377 48.638,314.546 48.049,313.872 47.328 C 313.197 46.608,312.121 45.451,311.479 44.757 C 310.837 44.063,309.429 43.103,308.351 42.623 C 307.273 42.143,305.872 41.263,305.238 40.668 C 304.604 40.073,303.533 39.350,302.857 39.063 C 302.181 38.776,301.568 38.405,301.495 38.239 C 301.224 37.626,298.176 35.886,296.872 35.601 C 293.451 34.854,289.182 32.154,288.652 30.403 C 288.493 29.877,285.132 28.406,284.089 28.405 C 283.792 28.405,282.829 28.074,281.949 27.671 C 281.070 27.267,279.852 26.738,279.243 26.495 C 278.606 26.241,277.955 25.573,277.709 24.923 C 277.152 23.446,276.108 23.012,273.680 23.245 C 272.444 23.364,271.595 23.272,271.428 23.002 C 271.281 22.763,270.637 22.568,269.997 22.568 C 269.285 22.568,268.502 22.217,267.978 21.664 C 267.299 20.947,266.393 20.659,263.619 20.277 C 259.451 19.704,257.198 19.155,257.198 18.712 C 257.198 18.425,253.099 17.899,246.109 17.289 C 242.304 16.957,240.096 16.359,240.339 15.726 C 240.505 15.292,240.066 15.166,238.271 15.132 C 227.790 14.937,72.580 15.042,72.068 15.245 M225.819 68.542 C 226.644 68.752,227.588 68.820,227.917 68.694 C 228.752 68.374,230.027 68.840,229.711 69.350 C 229.530 69.643,230.002 69.697,231.253 69.525 C 233.886 69.164,233.852 68.984,233.852 83.406 C 233.852 97.704,233.911 97.276,231.943 97.276 C 231.152 97.276,230.309 97.473,230.069 97.714 C 229.476 98.306,226.746 98.478,215.680 98.620 C 207.297 98.727,206.187 98.815,205.576 99.427 C 205.198 99.805,204.265 100.395,203.502 100.738 C 200.645 102.023,199.979 102.879,198.084 107.702 C 197.638 108.835,196.881 110.294,196.400 110.945 L 195.525 112.127 195.416 193.320 L 195.307 274.514 197.070 277.934 C 198.039 279.816,198.833 281.803,198.833 282.350 C 198.833 283.841,199.913 285.828,200.992 286.319 C 201.516 286.558,201.946 286.933,201.946 287.151 C 201.946 287.370,202.257 287.549,202.637 287.549 C 203.018 287.549,203.674 287.781,204.096 288.065 C 206.994 290.014,209.605 290.465,218.288 290.518 C 224.182 290.553,227.365 290.739,229.061 291.145 C 230.727 291.544,231.593 291.598,231.873 291.318 C 233.631 289.560,235.144 315.536,233.466 318.671 C 232.647 320.203,231.038 320.324,210.162 320.430 C 196.511 320.499,189.727 320.671,188.982 320.966 C 187.118 321.706,183.284 321.472,179.555 320.390 C 177.638 319.833,174.179 318.882,171.868 318.275 C 168.346 317.350,167.434 316.947,166.237 315.784 C 165.194 314.771,164.468 314.397,163.543 314.397 C 162.504 314.397,162.163 314.170,161.641 313.132 C 160.891 311.641,159.930 310.803,157.708 309.707 C 156.489 309.105,155.858 308.443,155.206 307.078 C 154.727 306.074,153.500 304.465,152.480 303.502 C 148.197 299.459,145.914 294.111,145.914 288.118 C 145.914 287.576,145.608 286.665,145.233 286.093 C 143.943 284.124,144.253 101.743,145.545 102.541 C 145.767 102.678,145.918 101.476,145.923 99.537 C 145.929 97.161,146.136 95.854,146.701 94.607 C 147.124 93.674,147.471 92.655,147.471 92.343 C 147.471 91.239,149.939 88.031,154.183 83.618 C 154.985 82.784,155.643 81.970,155.645 81.809 C 155.649 81.323,158.786 77.821,159.218 77.821 C 159.439 77.821,160.432 77.144,161.425 76.317 C 162.417 75.490,163.649 74.682,164.161 74.522 C 164.674 74.362,165.566 73.747,166.145 73.155 C 166.894 72.388,168.026 71.881,170.077 71.392 C 171.661 71.015,173.778 70.380,174.781 69.983 C 177.700 68.826,183.371 68.426,196.887 68.424 C 203.842 68.423,211.547 68.283,214.008 68.114 C 218.890 67.779,223.471 67.945,225.819 68.542 M177.918 373.809 C 178.293 373.907,178.906 373.907,179.280 373.809 C 179.655 373.711,179.348 373.631,178.599 373.631 C 177.850 373.631,177.544 373.711,177.918 373.809 "
              stroke="none" fill="#7d5ffa" fill-rule="evenodd"></path>
        <path id="path2"
              d="M64.981 13.728 L 64.008 14.225 63.910 193.830 L 63.812 373.435 64.619 374.461 L 65.426 375.486 152.655 375.463 C 206.438 375.449,240.629 375.297,241.829 375.068 C 242.899 374.863,245.088 374.537,246.693 374.343 C 250.598 373.872,256.168 372.853,258.560 372.172 C 259.630 371.868,261.294 371.506,262.257 371.369 C 263.220 371.231,264.183 370.987,264.397 370.827 C 264.611 370.666,265.311 370.417,265.953 370.273 C 267.962 369.822,273.717 368.016,274.125 367.709 C 274.339 367.548,275.153 367.302,275.934 367.161 C 276.715 367.020,277.568 366.647,277.830 366.332 C 278.091 366.017,278.815 365.759,279.437 365.759 C 280.060 365.759,280.662 365.516,280.776 365.219 C 280.890 364.922,281.485 364.579,282.097 364.456 C 283.581 364.159,291.338 360.293,294.747 358.152 C 296.245 357.211,297.733 356.317,298.054 356.165 C 298.375 356.013,299.076 355.601,299.611 355.249 C 300.146 354.896,301.634 353.926,302.918 353.091 C 304.879 351.817,307.842 349.723,310.047 348.054 C 310.329 347.840,310.850 347.359,311.203 346.984 C 311.557 346.610,312.070 346.304,312.343 346.304 C 312.617 346.304,312.840 346.041,312.840 345.720 C 312.840 345.399,313.034 345.136,313.271 345.136 C 313.507 345.136,314.250 344.674,314.921 344.109 C 317.939 341.570,321.632 338.232,322.544 337.220 C 323.092 336.611,324.830 334.773,326.405 333.135 C 327.981 331.496,329.732 329.622,330.296 328.969 C 334.072 324.606,337.718 320.072,338.740 318.470 C 339.145 317.835,339.601 317.224,339.754 317.112 C 340.219 316.771,342.023 313.996,342.023 313.621 C 342.023 313.427,342.254 313.128,342.535 312.957 C 342.816 312.786,343.736 311.536,344.578 310.179 C 345.420 308.823,346.766 306.700,347.568 305.461 C 348.371 304.223,349.027 303.092,349.027 302.948 C 349.027 302.804,349.601 301.776,350.302 300.662 C 351.849 298.206,357.214 287.317,359.544 281.907 C 360.004 280.837,360.536 279.611,360.725 279.183 C 361.438 277.568,362.355 274.835,362.814 272.957 C 363.076 271.887,363.408 270.749,363.552 270.428 C 363.825 269.821,364.728 266.697,365.409 264.008 C 365.626 263.152,366.046 261.576,366.342 260.506 C 366.947 258.324,367.573 255.620,368.144 252.724 C 368.354 251.654,368.698 250.078,368.907 249.222 C 369.116 248.366,369.528 246.089,369.822 244.163 C 370.116 242.237,370.548 240.169,370.782 239.566 C 371.015 238.964,371.209 237.826,371.213 237.037 C 371.217 236.248,371.486 234.377,371.810 232.879 C 372.135 231.381,372.566 227.879,372.767 225.097 C 372.969 222.315,373.334 218.726,373.580 217.121 C 374.191 213.130,374.192 175.985,373.581 171.984 C 373.336 170.379,372.971 166.702,372.769 163.813 C 372.566 160.924,372.139 157.160,371.819 155.447 C 371.498 153.735,371.048 151.196,370.819 149.805 C 369.526 141.971,369.244 140.473,368.881 139.520 C 368.662 138.943,368.482 137.861,368.482 137.115 C 368.482 136.369,368.230 135.270,367.920 134.672 C 367.611 134.074,367.237 132.638,367.090 131.481 C 366.942 130.324,366.664 129.072,366.472 128.698 C 366.279 128.324,365.937 127.011,365.710 125.780 C 365.483 124.548,365.162 123.366,364.995 123.152 C 364.829 122.938,364.568 122.062,364.415 121.206 C 364.263 120.350,363.907 119.125,363.626 118.482 C 363.344 117.840,362.937 116.615,362.721 115.759 C 362.505 114.903,362.107 113.589,361.836 112.840 C 360.262 108.486,359.414 106.378,359.104 106.051 C 358.912 105.847,358.755 105.429,358.755 105.120 C 358.755 104.812,358.419 103.840,358.008 102.961 C 357.597 102.081,356.896 100.530,356.451 99.514 C 354.676 95.458,354.001 94.163,353.662 94.163 C 353.467 94.163,353.307 93.898,353.307 93.573 C 353.307 93.020,352.289 90.977,350.339 87.615 C 349.883 86.829,348.925 85.086,348.209 83.741 C 347.494 82.396,346.510 80.921,346.022 80.463 C 345.535 80.006,345.135 79.443,345.134 79.212 C 345.133 78.982,344.333 77.656,343.358 76.265 C 342.383 74.874,341.290 73.298,340.931 72.763 C 336.733 66.516,325.442 53.801,319.852 49.027 C 318.725 48.064,317.517 47.004,317.169 46.672 C 316.822 46.340,315.486 45.201,314.202 44.143 C 312.918 43.084,311.728 41.999,311.557 41.732 C 311.385 41.464,311.075 41.245,310.867 41.245 C 310.659 41.245,309.399 40.407,308.066 39.382 C 305.662 37.534,303.151 35.753,301.367 34.630 C 299.065 33.182,290.668 28.366,288.911 27.487 C 285.626 25.843,282.630 24.514,282.209 24.514 C 281.988 24.514,281.589 24.251,281.323 23.930 C 281.057 23.609,280.509 23.346,280.107 23.346 C 279.704 23.346,278.721 22.996,277.923 22.568 C 277.124 22.140,276.118 21.784,275.687 21.778 C 275.256 21.771,274.563 21.508,274.147 21.194 C 273.732 20.880,273.058 20.623,272.650 20.623 C 272.242 20.623,271.356 20.375,270.681 20.072 C 270.007 19.769,268.054 19.138,266.342 18.670 C 264.630 18.202,262.106 17.486,260.732 17.080 C 259.359 16.675,257.640 16.342,256.913 16.342 C 256.186 16.342,255.258 16.164,254.852 15.947 C 254.445 15.729,252.662 15.361,250.889 15.128 C 249.116 14.895,246.702 14.430,245.525 14.094 C 242.592 13.259,66.597 12.902,64.981 13.728 M246.498 15.075 C 249.494 15.522,253.609 16.268,255.642 16.734 C 257.675 17.201,259.864 17.667,260.506 17.771 C 261.148 17.875,262.724 18.278,264.008 18.667 C 265.292 19.056,267.656 19.762,269.261 20.236 C 273.400 21.458,276.672 22.681,280.587 24.472 C 281.574 24.923,282.483 25.292,282.608 25.292 C 283.299 25.292,294.666 31.156,297.276 32.859 C 307.709 39.667,310.927 42.032,317.315 47.590 C 321.585 51.304,329.937 59.823,332.459 63.035 C 333.719 64.640,335.080 66.304,335.483 66.732 C 337.383 68.747,343.336 77.057,344.789 79.722 C 345.929 81.811,346.274 82.380,347.306 83.860 C 349.122 86.467,353.529 94.720,356.237 100.584 C 358.342 105.144,361.677 113.951,362.645 117.510 C 363.024 118.901,363.716 121.265,364.182 122.763 C 364.649 124.261,365.178 126.277,365.357 127.243 C 365.536 128.209,365.941 129.872,366.257 130.939 C 367.526 135.230,368.309 138.885,369.465 145.914 C 369.765 147.733,370.107 149.572,370.226 150.000 C 370.482 150.924,371.719 161.147,372.793 171.206 C 373.419 177.077,373.564 181.259,373.578 193.874 C 373.596 208.906,373.424 212.356,372.107 223.346 C 371.787 226.021,371.299 230.512,371.024 233.326 C 370.749 236.139,370.381 238.672,370.207 238.954 C 370.032 239.236,369.671 240.961,369.403 242.788 C 368.739 247.323,367.819 252.307,367.368 253.811 C 366.837 255.581,366.203 258.212,365.709 260.700 C 365.476 261.877,365.052 263.392,364.768 264.066 C 364.485 264.740,364.131 265.966,363.982 266.790 C 363.833 267.614,363.568 268.470,363.393 268.693 C 363.218 268.916,362.883 269.966,362.649 271.028 C 362.275 272.722,360.129 278.947,359.168 281.128 C 358.979 281.556,358.443 282.782,357.977 283.852 C 354.900 290.913,350.734 298.831,346.135 306.357 C 337.729 320.115,323.720 336.562,314.593 343.389 C 313.737 344.029,312.774 344.842,312.453 345.195 C 311.780 345.934,304.048 351.751,303.738 351.751 C 303.625 351.751,302.155 352.670,300.473 353.794 C 295.905 356.844,293.675 358.171,289.494 360.329 C 283.238 363.558,272.063 368.123,269.116 368.653 C 268.287 368.803,267.324 369.070,266.975 369.247 C 266.061 369.711,260.894 371.086,258.171 371.589 C 256.887 371.826,254.523 372.276,252.918 372.588 C 249.027 373.346,245.763 373.813,240.939 374.302 C 234.313 374.974,65.978 374.857,65.416 374.180 C 64.954 373.624,64.745 15.092,65.206 14.347 C 65.742 13.480,240.509 14.182,246.498 15.075 M180.023 70.861 C 178.131 71.045,175.368 71.634,173.884 72.169 C 170.306 73.460,165.638 75.455,165.381 75.804 C 165.268 75.957,163.949 76.906,162.451 77.912 C 157.888 80.977,150.773 89.482,149.970 92.832 C 149.821 93.457,149.563 94.144,149.398 94.358 C 148.859 95.057,147.559 99.348,146.910 102.572 C 145.935 107.411,145.933 280.629,146.908 286.105 C 147.525 289.570,148.655 293.319,149.689 295.331 C 149.965 295.866,150.191 296.436,150.192 296.599 C 150.220 300.082,162.066 311.667,168.482 314.487 C 173.780 316.816,174.391 317.004,179.572 317.896 C 181.756 318.272,229.276 318.409,230.642 318.043 L 231.518 317.808 231.518 305.480 C 231.518 296.410,231.394 293.028,231.051 292.685 C 230.711 292.345,227.663 292.213,219.864 292.201 C 211.257 292.187,208.837 292.067,207.588 291.594 C 206.732 291.269,205.425 290.820,204.683 290.597 C 203.149 290.134,199.259 287.265,198.339 285.919 C 198.001 285.424,197.273 284.511,196.722 283.889 C 196.171 283.267,195.720 282.493,195.720 282.169 C 195.720 281.844,195.475 281.302,195.176 280.964 C 193.338 278.887,193.381 280.995,193.387 194.325 C 193.393 105.357,193.232 111.341,195.744 106.629 C 197.803 102.765,200.741 99.986,204.680 98.173 C 208.248 96.532,209.973 96.311,220.817 96.110 L 231.323 95.914 231.426 83.489 C 231.505 73.910,231.418 70.996,231.045 70.765 C 230.384 70.357,184.317 70.443,180.023 70.861 M230.545 83.463 L 230.545 95.525 219.650 95.720 C 211.964 95.857,208.505 96.058,207.905 96.401 C 207.438 96.668,206.771 96.887,206.424 96.887 C 205.643 96.887,202.584 98.259,201.881 98.925 C 201.596 99.196,200.730 99.842,199.957 100.360 C 198.190 101.546,195.495 105.170,194.150 108.171 C 192.567 111.701,192.602 109.592,192.704 195.146 L 192.802 276.848 193.732 279.475 C 194.243 280.919,194.812 282.101,194.996 282.101 C 195.180 282.101,195.331 282.343,195.331 282.638 C 195.331 284.320,201.438 290.329,203.719 290.892 C 204.349 291.047,205.214 291.386,205.642 291.645 C 207.176 292.575,211.238 292.980,220.471 293.125 C 225.631 293.206,230.052 293.395,230.296 293.546 C 231.004 293.984,230.915 316.880,230.203 317.471 C 228.228 319.110,176.715 317.546,173.481 315.749 C 172.913 315.433,172.125 315.174,171.730 315.173 C 171.335 315.171,170.486 314.822,169.844 314.397 C 169.202 313.972,168.283 313.623,167.802 313.621 C 167.320 313.620,166.926 313.440,166.926 313.221 C 166.926 313.003,166.445 312.615,165.856 312.360 C 163.244 311.227,158.162 306.723,155.379 303.073 C 154.580 302.025,153.787 301.167,153.617 301.167 C 153.447 301.167,153.307 300.988,153.307 300.770 C 153.307 300.297,151.295 297.139,150.875 296.952 C 150.715 296.881,150.584 296.526,150.584 296.163 C 150.584 295.801,150.342 295.159,150.046 294.736 C 149.526 293.994,148.715 291.393,147.744 287.354 C 146.845 283.613,147.092 103.950,148.001 100.778 C 148.400 99.387,148.859 97.587,149.021 96.779 C 149.183 95.970,149.601 94.993,149.950 94.608 C 150.298 94.223,150.584 93.637,150.584 93.306 C 150.584 92.781,151.432 91.127,153.031 88.537 C 153.290 88.118,154.069 87.155,154.763 86.397 C 155.457 85.639,156.026 84.904,156.028 84.763 C 156.031 84.497,160.704 79.767,160.964 79.767 C 161.046 79.767,161.972 79.087,163.023 78.256 C 164.758 76.885,166.243 76.074,169.942 74.476 C 170.637 74.176,171.775 73.682,172.471 73.379 C 177.107 71.361,178.632 71.267,205.447 71.336 L 230.545 71.401 230.545 83.463 "
              stroke="none" fill="#cbb4fc" fill-rule="evenodd"></path>
        <path id="path3"
              d="M65.752 15.078 C 65.748 15.452,65.745 96.304,65.745 194.747 L 65.745 373.735 69.254 373.847 C 71.541 373.920,72.763 373.815,72.763 373.546 C 72.763 372.933,70.773 372.287,69.604 372.520 C 67.950 372.849,67.033 371.652,66.746 368.790 C 66.611 367.444,66.552 287.869,66.616 191.957 L 66.732 17.572 67.630 16.616 C 69.007 15.151,67.210 15.183,151.751 15.107 C 195.302 15.068,231.459 14.910,232.101 14.756 C 232.743 14.602,195.579 14.459,149.514 14.437 C 69.994 14.399,65.758 14.431,65.752 15.078 M240.331 15.858 C 240.037 16.335,242.684 16.990,246.109 17.289 C 253.099 17.899,257.198 18.425,257.198 18.712 C 257.198 19.155,259.451 19.704,263.619 20.277 C 266.393 20.659,267.299 20.947,267.978 21.664 C 268.502 22.217,269.285 22.568,269.997 22.568 C 270.637 22.568,271.269 22.743,271.401 22.957 C 271.533 23.171,272.321 23.346,273.152 23.346 C 273.983 23.346,274.770 23.171,274.903 22.957 C 275.035 22.743,274.889 22.568,274.579 22.568 C 274.269 22.568,273.252 22.222,272.319 21.798 C 271.386 21.375,270.097 21.019,269.455 21.008 C 268.813 20.996,267.948 20.730,267.533 20.416 C 267.117 20.101,266.242 19.843,265.587 19.842 C 264.932 19.841,263.886 19.573,263.261 19.247 C 262.637 18.922,261.035 18.501,259.702 18.312 C 258.369 18.123,256.921 17.778,256.486 17.545 C 256.050 17.311,255.097 17.121,254.368 17.121 C 253.638 17.121,252.182 16.855,251.132 16.531 C 248.720 15.787,240.685 15.286,240.331 15.858 M277.432 24.531 C 277.432 25.157,279.267 26.848,279.945 26.848 C 280.276 26.848,281.201 27.198,282.000 27.626 C 282.798 28.054,283.717 28.405,284.041 28.405 C 285.122 28.406,288.489 29.864,288.652 30.403 C 289.182 32.154,293.451 34.854,296.872 35.601 C 298.176 35.886,301.224 37.626,301.495 38.239 C 301.568 38.405,302.181 38.776,302.857 39.063 C 303.533 39.350,304.604 40.073,305.238 40.668 C 305.872 41.263,307.273 42.143,308.351 42.623 C 309.429 43.103,310.803 44.030,311.404 44.682 C 314.499 48.043,315.148 48.638,315.720 48.638 C 316.062 48.638,316.342 48.819,316.342 49.040 C 316.342 49.261,317.656 50.772,319.261 52.398 C 320.866 54.024,322.179 55.469,322.179 55.609 C 322.179 55.749,322.709 56.176,323.357 56.559 C 324.005 56.942,324.925 57.636,325.403 58.102 C 325.880 58.568,326.935 59.469,327.746 60.105 C 328.558 60.741,329.547 61.966,329.943 62.829 C 330.340 63.691,331.163 64.922,331.772 65.564 C 332.382 66.206,333.364 67.476,333.956 68.385 C 334.547 69.295,335.166 70.039,335.331 70.039 C 335.497 70.039,335.660 70.409,335.694 70.861 C 335.728 71.313,336.028 71.983,336.360 72.350 C 336.693 72.718,336.965 73.397,336.965 73.860 C 336.965 74.323,337.315 74.920,337.743 75.188 C 338.171 75.455,338.521 75.962,338.521 76.313 C 338.521 76.665,338.956 77.238,339.488 77.587 C 340.020 77.935,340.557 78.629,340.683 79.129 C 340.852 79.802,341.131 79.999,341.759 79.890 C 342.441 79.771,342.752 80.069,343.345 81.408 C 343.751 82.324,344.394 83.424,344.774 83.852 C 345.154 84.280,346.106 85.856,346.890 87.354 C 348.647 90.713,350.007 92.734,351.654 94.431 C 353.213 96.038,353.219 95.907,351.724 92.883 C 349.900 89.192,349.374 88.262,348.182 86.615 C 347.577 85.780,347.082 84.941,347.082 84.751 C 347.082 84.393,345.701 82.327,344.844 81.403 C 344.577 81.114,344.358 80.653,344.358 80.378 C 344.358 80.103,343.745 79.076,342.996 78.095 C 342.247 77.114,341.634 76.152,341.634 75.958 C 341.634 75.764,341.328 75.244,340.953 74.803 C 338.709 72.157,337.422 70.530,336.454 69.112 C 335.852 68.231,334.801 66.881,334.119 66.113 C 333.437 65.344,332.004 63.638,330.934 62.322 C 327.067 57.563,313.873 44.747,312.842 44.747 C 312.648 44.747,312.350 44.515,312.179 44.232 C 312.008 43.949,311.264 43.292,310.526 42.773 C 309.787 42.254,307.975 40.910,306.497 39.786 C 305.020 38.662,303.666 37.743,303.490 37.743 C 303.313 37.743,302.932 37.524,302.644 37.257 C 301.921 36.587,299.685 35.019,299.452 35.019 C 299.347 35.019,298.425 34.450,297.404 33.755 C 295.412 32.398,291.531 30.251,289.786 29.542 C 289.197 29.303,288.716 28.949,288.716 28.756 C 288.716 28.563,288.410 28.402,288.035 28.399 C 287.661 28.396,286.916 28.148,286.381 27.849 C 284.071 26.556,281.331 25.292,280.838 25.292 C 280.544 25.292,279.964 25.035,279.549 24.721 C 278.668 24.054,277.432 23.944,277.432 24.531 M214.008 68.114 C 211.547 68.283,203.842 68.423,196.887 68.424 C 183.371 68.426,177.700 68.826,174.781 69.983 C 173.778 70.380,171.661 71.015,170.077 71.392 C 168.026 71.881,166.894 72.388,166.145 73.155 C 165.566 73.747,164.674 74.362,164.161 74.522 C 163.649 74.682,162.417 75.490,161.425 76.317 C 160.432 77.144,159.439 77.821,159.218 77.821 C 158.786 77.821,155.649 81.323,155.645 81.809 C 155.643 81.970,154.985 82.784,154.183 83.618 C 149.939 88.031,147.471 91.239,147.471 92.343 C 147.471 92.655,147.124 93.674,146.701 94.607 C 145.876 96.425,145.511 103.172,146.304 101.946 C 146.511 101.625,146.683 100.869,146.687 100.267 C 146.692 99.208,147.522 96.858,149.063 93.537 C 149.472 92.658,149.805 91.731,149.805 91.479 C 149.805 91.034,151.073 89.067,152.017 88.043 C 152.271 87.769,152.584 87.211,152.713 86.804 C 152.842 86.397,153.204 85.966,153.517 85.846 C 153.830 85.726,154.086 85.445,154.086 85.223 C 154.086 84.596,156.689 81.683,158.784 79.966 C 162.018 77.316,163.374 76.333,164.128 76.094 C 164.597 75.945,164.981 75.655,164.981 75.451 C 164.981 75.246,165.375 74.925,165.856 74.738 C 166.338 74.551,167.898 73.855,169.324 73.191 C 170.749 72.528,172.157 71.984,172.451 71.984 C 172.746 71.984,173.674 71.634,174.514 71.206 C 175.556 70.675,176.808 70.428,178.462 70.428 C 179.793 70.428,181.335 70.256,181.887 70.046 C 182.501 69.813,191.969 69.655,206.219 69.641 C 219.313 69.627,229.640 69.466,229.759 69.272 C 230.037 68.822,228.687 68.399,227.917 68.694 C 227.588 68.820,226.644 68.752,225.819 68.542 C 223.471 67.945,218.890 67.779,214.008 68.114 M231.717 69.642 C 231.588 69.851,231.670 70.374,231.899 70.804 C 232.402 71.743,232.281 95.548,231.768 96.595 C 231.496 97.151,231.613 97.276,232.407 97.276 C 232.942 97.276,233.486 96.999,233.616 96.661 C 234.037 95.563,233.883 70.823,233.449 70.013 C 233.019 69.210,232.105 69.014,231.717 69.642 M352.798 97.866 C 352.615 98.995,352.918 99.895,354.535 103.022 C 355.613 105.105,356.999 108.285,357.616 110.089 C 358.233 111.893,358.917 113.547,359.136 113.766 C 359.354 113.985,359.533 114.417,359.533 114.728 C 359.533 115.038,359.956 116.185,360.473 117.276 C 360.989 118.368,361.502 120.136,361.613 121.206 C 361.892 123.911,362.769 127.652,363.985 131.323 C 364.551 133.035,365.122 135.311,365.252 136.381 C 365.382 137.451,365.812 138.937,366.207 139.683 C 366.603 140.429,366.927 141.742,366.929 142.601 C 366.940 148.196,369.517 162.236,370.430 161.672 C 370.967 161.340,370.911 159.576,370.227 155.253 C 369.905 153.220,369.473 150.057,369.267 148.225 C 369.062 146.393,368.626 144.253,368.299 143.471 C 367.972 142.689,367.704 141.249,367.704 140.272 C 367.704 139.296,367.467 137.928,367.176 137.232 C 366.886 136.537,366.523 134.970,366.371 133.749 C 366.218 132.528,365.941 131.435,365.754 131.320 C 365.567 131.205,365.306 130.283,365.174 129.271 C 365.042 128.260,364.695 126.732,364.403 125.875 C 364.111 125.019,363.751 123.706,363.603 122.957 C 363.455 122.208,363.146 121.362,362.916 121.077 C 362.686 120.793,362.372 119.742,362.218 118.743 C 362.064 117.744,361.470 115.700,360.899 114.202 C 360.328 112.704,359.723 110.953,359.554 110.311 C 359.386 109.669,358.970 108.619,358.631 107.977 C 357.668 106.153,356.420 103.292,356.420 102.909 C 356.420 102.372,353.533 96.526,353.261 96.511 C 353.129 96.504,352.920 97.114,352.798 97.866 M209.008 97.444 C 207.436 97.716,206.035 98.117,205.895 98.337 C 205.756 98.556,205.073 98.858,204.377 99.009 C 203.682 99.160,203.113 99.454,203.113 99.662 C 203.113 99.870,202.588 100.224,201.946 100.447 C 201.304 100.671,200.776 100.969,200.774 101.108 C 200.772 101.248,199.721 102.491,198.439 103.872 C 197.074 105.343,196.109 106.732,196.109 107.229 C 196.109 107.695,195.868 108.276,195.574 108.520 C 194.566 109.356,194.532 112.287,194.547 194.883 C 194.562 275.086,194.635 280.545,195.689 280.545 C 195.867 280.545,196.116 281.065,196.243 281.700 C 196.370 282.335,196.786 283.175,197.167 283.567 C 197.548 283.959,198.399 284.921,199.059 285.705 C 200.488 287.405,204.658 290.272,205.702 290.272 C 206.109 290.272,206.794 290.519,207.225 290.821 C 207.947 291.327,221.153 291.726,227.626 291.438 L 229.377 291.360 228.016 290.965 C 227.267 290.748,222.889 290.547,218.288 290.518 C 209.606 290.465,206.993 290.013,204.096 288.065 C 203.674 287.781,203.018 287.549,202.637 287.549 C 202.257 287.549,201.946 287.370,201.946 287.151 C 201.946 286.933,201.516 286.558,200.992 286.319 C 199.913 285.828,198.833 283.841,198.833 282.350 C 198.833 281.803,198.039 279.816,197.070 277.934 L 195.307 274.514 195.416 193.320 L 195.525 112.127 196.400 110.945 C 196.881 110.294,197.638 108.835,198.084 107.702 C 199.979 102.879,200.645 102.023,203.502 100.738 C 204.265 100.395,205.198 99.805,205.576 99.427 C 206.187 98.815,207.297 98.727,215.680 98.620 C 226.746 98.478,229.476 98.306,230.069 97.714 C 230.309 97.473,230.427 97.265,230.331 97.252 C 227.864 96.915,211.206 97.065,209.008 97.444 M144.869 103.754 C 144.139 107.208,144.494 284.964,145.233 286.093 C 145.608 286.665,145.914 287.576,145.914 288.118 C 145.914 294.111,148.197 299.459,152.480 303.502 C 153.500 304.465,154.727 306.074,155.206 307.078 C 155.858 308.443,156.489 309.105,157.708 309.707 C 159.930 310.803,160.891 311.641,161.641 313.132 C 162.163 314.170,162.504 314.397,163.543 314.397 C 164.468 314.397,165.194 314.771,166.237 315.784 C 167.434 316.947,168.346 317.350,171.868 318.275 C 174.179 318.882,177.638 319.833,179.555 320.390 C 183.284 321.472,187.118 321.706,188.982 320.966 C 189.727 320.671,196.511 320.499,210.162 320.430 C 231.038 320.324,232.647 320.203,233.466 318.671 C 234.291 317.130,233.955 292.432,233.098 291.656 C 232.083 290.738,231.436 291.175,231.921 292.452 C 232.497 293.964,232.412 317.627,231.829 318.210 C 231.250 318.789,179.589 318.870,177.432 318.296 C 176.683 318.097,175.107 317.683,173.930 317.376 C 172.753 317.070,171.265 316.538,170.623 316.194 C 169.981 315.850,169.258 315.568,169.017 315.567 C 168.775 315.565,168.360 315.302,168.093 314.981 C 167.827 314.660,167.293 314.397,166.906 314.397 C 166.520 314.397,165.972 314.178,165.689 313.911 C 165.406 313.643,164.154 312.756,162.906 311.940 C 161.659 311.124,159.881 309.723,158.956 308.827 C 158.031 307.931,156.863 306.824,156.361 306.367 C 155.858 305.910,155.135 305.122,154.752 304.616 C 152.317 301.396,151.362 300.000,151.362 299.662 C 151.362 299.450,151.131 299.046,150.850 298.763 C 150.277 298.187,148.249 293.906,148.249 293.272 C 148.249 293.047,147.976 292.561,147.641 292.191 C 147.307 291.822,146.933 290.495,146.810 289.242 C 146.688 287.990,146.392 286.719,146.154 286.419 C 145.838 286.021,145.695 260.894,145.629 194.240 C 145.579 143.842,145.459 102.528,145.362 102.431 C 145.265 102.334,145.044 102.930,144.869 103.754 M370.612 164.672 C 370.486 165.002,370.568 169.363,370.794 174.362 C 371.308 185.707,371.314 204.686,370.806 215.149 C 370.594 219.521,370.527 223.435,370.658 223.846 C 371.201 225.558,371.642 223.535,372.003 217.672 C 372.213 214.265,372.550 210.691,372.751 209.728 C 373.235 207.415,373.242 183.027,372.760 179.690 C 372.552 178.257,372.207 174.328,371.993 170.959 C 371.630 165.247,371.179 163.195,370.612 164.672 M369.659 227.999 C 368.892 229.432,367.574 236.802,367.117 242.218 C 366.742 246.661,366.226 249.826,365.792 250.349 C 365.568 250.618,365.223 251.963,365.024 253.338 C 364.825 254.712,364.458 256.362,364.208 257.004 C 363.405 259.068,361.479 266.940,361.479 268.161 C 361.479 270.216,359.774 276.263,359.194 276.266 C 358.837 276.268,356.994 279.984,356.012 282.685 C 355.544 283.969,355.014 285.282,354.832 285.603 C 353.309 288.298,351.751 291.545,351.751 292.024 C 351.751 292.345,351.389 292.969,350.946 293.412 C 350.503 293.855,349.886 294.940,349.574 295.824 C 349.262 296.709,348.749 297.717,348.434 298.065 C 347.617 298.968,345.918 302.411,345.916 303.168 C 345.915 303.520,345.657 303.906,345.343 304.027 C 345.029 304.148,344.521 304.845,344.216 305.577 C 343.910 306.309,343.015 307.499,342.227 308.221 C 339.113 311.073,337.743 312.535,337.743 313.006 C 337.743 313.276,337.400 313.809,336.980 314.189 C 336.560 314.569,336.016 315.486,335.772 316.227 C 334.861 318.987,332.077 322.899,330.629 323.455 C 330.273 323.591,329.671 324.294,329.291 325.016 C 328.910 325.739,328.276 326.939,327.880 327.685 C 327.257 328.859,325.916 329.946,322.839 331.772 C 322.422 332.020,321.446 332.850,320.671 333.619 C 319.895 334.387,318.794 335.432,318.224 335.941 C 317.653 336.450,316.818 337.589,316.367 338.472 C 315.917 339.355,315.421 340.079,315.264 340.080 C 315.108 340.081,314.368 340.701,313.619 341.457 C 309.715 345.400,308.704 346.300,308.171 346.310 C 307.850 346.316,307.150 346.663,306.615 347.082 C 306.080 347.500,305.435 347.847,305.182 347.851 C 304.928 347.856,303.822 348.735,302.724 349.805 C 301.625 350.875,300.563 351.751,300.363 351.751 C 300.163 351.751,300.000 351.905,300.000 352.093 C 300.000 352.521,298.319 353.172,296.392 353.492 C 295.557 353.630,294.720 354.062,294.450 354.494 C 294.170 354.942,293.546 355.253,292.925 355.253 C 292.346 355.253,291.644 355.572,291.364 355.962 C 291.085 356.352,290.287 356.920,289.591 357.224 C 288.604 357.656,288.327 358.013,288.327 358.850 C 288.327 360.100,288.973 360.227,290.317 359.241 C 290.828 358.867,292.121 358.123,293.191 357.588 C 294.261 357.053,295.224 356.508,295.331 356.377 C 295.438 356.247,296.051 355.847,296.693 355.490 C 299.361 354.005,306.248 349.295,308.336 347.529 C 309.259 346.748,310.927 345.409,312.042 344.553 C 315.903 341.588,319.337 338.341,319.648 337.359 C 319.785 336.928,320.223 336.576,320.621 336.576 C 321.020 336.576,322.365 335.490,323.611 334.164 C 324.856 332.837,326.488 331.115,327.237 330.338 C 327.986 329.560,329.243 328.150,330.029 327.205 C 330.816 326.260,332.083 324.786,332.845 323.930 C 333.607 323.074,334.333 322.067,334.457 321.693 C 334.581 321.318,334.816 321.012,334.980 321.012 C 335.143 321.012,335.869 320.180,336.593 319.163 C 337.318 318.147,338.135 317.084,338.410 316.801 C 338.685 316.518,338.911 316.168,338.912 316.023 C 338.913 315.878,339.402 315.233,339.998 314.591 C 340.595 313.949,341.314 312.860,341.596 312.170 C 341.878 311.480,342.484 310.511,342.942 310.015 C 343.400 309.520,344.002 308.683,344.280 308.157 C 345.781 305.311,346.116 304.751,347.059 303.502 C 347.625 302.753,348.304 301.702,348.566 301.167 C 348.829 300.632,349.994 298.444,351.155 296.304 C 353.857 291.322,355.642 287.691,355.642 287.176 C 355.642 286.953,355.817 286.770,356.031 286.770 C 356.245 286.770,356.420 286.476,356.420 286.115 C 356.420 285.523,356.960 284.177,358.573 280.739 C 358.874 280.097,359.487 278.346,359.936 276.848 C 360.384 275.350,361.002 273.628,361.310 273.022 C 361.617 272.415,361.984 271.190,362.124 270.298 C 362.264 269.407,362.601 268.327,362.873 267.899 C 363.144 267.471,363.492 266.437,363.645 265.600 C 363.798 264.764,364.160 263.626,364.449 263.071 C 364.739 262.516,364.978 261.362,364.981 260.506 C 364.983 259.650,365.236 258.469,365.542 257.881 C 365.849 257.294,366.223 255.981,366.374 254.963 C 366.524 253.945,366.885 252.434,367.176 251.605 C 367.467 250.775,367.704 249.424,367.704 248.603 C 367.704 247.781,367.975 246.312,368.306 245.337 C 368.637 244.363,369.063 242.212,369.253 240.557 C 369.443 238.902,369.772 236.761,369.985 235.798 C 371.091 230.795,370.879 225.720,369.659 227.999 M285.053 360.646 C 284.939 360.830,284.057 361.089,283.093 361.221 C 282.129 361.353,281.030 361.612,280.651 361.796 C 280.271 361.980,279.261 362.465,278.405 362.874 C 277.093 363.502,275.900 365.370,276.811 365.370 C 277.075 365.370,280.274 363.939,282.154 362.979 C 282.932 362.582,283.852 362.257,284.197 362.257 C 284.542 362.257,284.825 362.096,284.825 361.900 C 284.825 361.704,285.569 361.280,286.479 360.958 L 288.132 360.373 286.696 360.342 C 285.906 360.325,285.167 360.462,285.053 360.646 M272.179 365.684 C 271.751 365.767,271.234 365.992,271.031 366.186 C 270.828 366.379,270.253 366.537,269.755 366.537 C 269.256 366.537,267.847 366.954,266.623 367.464 C 265.398 367.974,262.821 368.608,260.895 368.873 C 257.233 369.377,256.031 369.778,256.031 370.494 C 256.031 371.055,261.263 370.702,261.999 370.092 C 262.291 369.849,263.342 369.540,264.335 369.403 C 265.327 369.267,266.338 368.917,266.580 368.625 C 266.823 368.332,267.657 368.087,268.433 368.080 C 269.209 368.073,270.545 367.729,271.401 367.315 C 272.257 366.902,273.253 366.557,273.615 366.550 C 273.977 366.543,274.369 366.382,274.486 366.192 C 274.737 365.787,273.295 365.469,272.179 365.684 M244.358 371.844 C 243.823 371.923,242.072 372.179,240.467 372.415 C 235.827 373.095,235.907 373.516,240.677 373.529 C 243.358 373.536,245.845 373.312,247.292 372.933 C 248.567 372.599,250.924 372.185,252.529 372.012 C 255.247 371.720,255.100 371.699,250.389 371.700 C 247.607 371.701,244.893 371.766,244.358 371.844 M75.584 373.012 C 74.569 373.439,75.159 373.930,76.686 373.930 C 77.783 373.930,78.226 373.779,78.115 373.444 C 77.946 372.930,76.404 372.667,75.584 373.012 M177.043 373.142 C 159.612 373.487,170.230 373.800,202.626 373.894 C 230.062 373.975,233.074 373.923,233.074 373.373 C 233.074 372.734,203.721 372.613,177.043 373.142 "
              stroke="none" fill="#806bce" fill-rule="evenodd"></path>
        <path id="path4"
              d="M65.206 14.347 C 64.745 15.092,64.954 373.624,65.416 374.180 C 65.978 374.857,234.313 374.974,240.939 374.302 C 245.763 373.813,249.027 373.346,252.918 372.588 C 254.523 372.276,256.887 371.826,258.171 371.589 C 260.894 371.086,266.061 369.711,266.975 369.247 C 267.324 369.070,268.287 368.803,269.116 368.653 C 272.063 368.123,283.238 363.558,289.494 360.329 C 293.675 358.171,295.905 356.844,300.473 353.794 C 302.155 352.670,303.625 351.751,303.738 351.751 C 304.048 351.751,311.780 345.934,312.453 345.195 C 312.774 344.842,313.737 344.029,314.593 343.389 C 318.561 340.421,327.026 331.901,332.408 325.459 C 342.396 313.503,351.539 298.625,357.977 283.852 C 358.443 282.782,358.979 281.556,359.168 281.128 C 360.129 278.947,362.275 272.722,362.649 271.028 C 362.883 269.966,363.218 268.916,363.393 268.693 C 363.568 268.470,363.833 267.614,363.982 266.790 C 364.131 265.966,364.485 264.740,364.768 264.066 C 365.052 263.392,365.476 261.877,365.709 260.700 C 366.203 258.212,366.837 255.581,367.368 253.811 C 367.819 252.307,368.739 247.323,369.403 242.788 C 369.671 240.961,370.032 239.236,370.207 238.954 C 370.381 238.672,370.749 236.139,371.024 233.326 C 371.299 230.512,371.787 226.021,372.107 223.346 C 373.424 212.356,373.596 208.906,373.578 193.874 C 373.564 181.259,373.419 177.077,372.793 171.206 C 371.719 161.147,370.482 150.924,370.226 150.000 C 370.107 149.572,369.765 147.733,369.465 145.914 C 368.309 138.885,367.526 135.230,366.257 130.939 C 365.941 129.872,365.536 128.209,365.357 127.243 C 365.178 126.277,364.649 124.261,364.182 122.763 C 363.716 121.265,363.024 118.901,362.645 117.510 C 361.677 113.951,358.342 105.144,356.237 100.584 C 353.529 94.720,349.122 86.467,347.306 83.860 C 346.274 82.380,345.929 81.811,344.789 79.722 C 343.336 77.057,337.383 68.747,335.483 66.732 C 335.080 66.304,333.719 64.640,332.459 63.035 C 329.937 59.823,321.585 51.304,317.315 47.590 C 310.927 42.032,307.709 39.667,297.276 32.859 C 294.666 31.156,283.299 25.292,282.608 25.292 C 282.483 25.292,281.574 24.923,280.587 24.472 C 276.672 22.681,273.400 21.458,269.261 20.236 C 267.656 19.762,265.292 19.056,264.008 18.667 C 262.724 18.278,261.148 17.875,260.506 17.771 C 259.864 17.667,257.675 17.201,255.642 16.734 C 244.229 14.118,250.483 14.278,153.240 14.124 C 99.353 14.039,65.343 14.125,65.206 14.347 M234.630 14.771 C 236.021 14.969,239.874 15.318,243.191 15.548 C 246.508 15.777,250.081 16.225,251.132 16.543 C 252.182 16.861,253.638 17.121,254.368 17.121 C 255.097 17.121,256.050 17.311,256.486 17.545 C 256.921 17.778,258.369 18.123,259.702 18.312 C 261.035 18.501,262.637 18.922,263.261 19.247 C 263.886 19.573,264.932 19.841,265.587 19.842 C 266.242 19.843,267.117 20.101,267.533 20.416 C 267.948 20.730,268.781 20.992,269.383 20.999 C 269.985 21.006,271.386 21.378,272.496 21.825 C 277.540 23.859,278.469 24.251,279.437 24.754 C 280.006 25.050,280.673 25.292,280.921 25.292 C 281.344 25.292,284.212 26.635,286.381 27.849 C 286.916 28.148,287.661 28.396,288.035 28.399 C 288.410 28.402,288.716 28.563,288.716 28.756 C 288.716 28.949,289.197 29.303,289.786 29.542 C 291.531 30.251,295.412 32.398,297.404 33.755 C 298.425 34.450,299.347 35.019,299.452 35.019 C 299.685 35.019,301.921 36.587,302.644 37.257 C 302.932 37.524,303.313 37.743,303.490 37.743 C 303.666 37.743,305.020 38.662,306.497 39.786 C 307.975 40.910,309.787 42.254,310.526 42.773 C 311.264 43.292,312.008 43.949,312.179 44.232 C 312.350 44.515,312.648 44.747,312.842 44.747 C 313.035 44.747,314.114 45.579,315.240 46.595 C 322.989 53.591,327.487 58.101,330.934 62.329 C 332.004 63.642,333.437 65.344,334.119 66.113 C 334.801 66.881,335.852 68.231,336.454 69.112 C 337.422 70.530,338.709 72.157,340.953 74.803 C 341.328 75.244,341.634 75.764,341.634 75.958 C 341.634 76.152,342.247 77.114,342.996 78.095 C 343.745 79.076,344.358 80.103,344.358 80.378 C 344.358 80.653,344.577 81.114,344.844 81.403 C 345.701 82.327,347.082 84.393,347.082 84.751 C 347.082 84.941,347.577 85.780,348.182 86.615 C 349.366 88.251,349.948 89.280,351.569 92.607 C 352.143 93.784,353.469 96.506,354.516 98.655 C 355.563 100.804,356.420 102.719,356.420 102.910 C 356.420 103.293,357.669 106.155,358.631 107.977 C 358.970 108.619,359.386 109.669,359.554 110.311 C 359.723 110.953,360.328 112.704,360.899 114.202 C 361.470 115.700,362.064 117.744,362.218 118.743 C 362.372 119.742,362.686 120.793,362.916 121.077 C 363.146 121.362,363.455 122.208,363.603 122.957 C 363.751 123.706,364.111 125.019,364.403 125.875 C 364.695 126.732,365.042 128.260,365.174 129.271 C 365.306 130.283,365.567 131.205,365.754 131.320 C 365.941 131.435,366.218 132.528,366.371 133.749 C 366.523 134.970,366.886 136.537,367.176 137.232 C 367.467 137.928,367.704 139.296,367.704 140.272 C 367.704 141.249,367.968 142.680,368.291 143.453 C 368.614 144.225,368.974 145.839,369.091 147.039 C 369.208 148.240,369.566 150.756,369.886 152.631 C 370.207 154.506,370.629 157.833,370.824 160.024 C 371.020 162.215,371.353 165.321,371.564 166.926 C 373.083 178.455,373.680 204.018,372.591 210.868 C 372.257 212.967,371.974 216.064,371.961 217.751 C 371.948 219.437,371.762 221.693,371.546 222.763 C 371.331 223.833,370.994 226.722,370.797 229.183 C 370.600 231.644,370.187 234.971,369.880 236.576 C 369.572 238.181,369.219 240.457,369.095 241.634 C 368.970 242.811,368.614 244.475,368.303 245.331 C 367.993 246.187,367.731 247.609,367.721 248.492 C 367.712 249.375,367.467 250.775,367.176 251.605 C 366.885 252.434,366.524 253.945,366.374 254.963 C 366.223 255.981,365.849 257.294,365.542 257.881 C 365.236 258.469,364.983 259.650,364.981 260.506 C 364.978 261.362,364.739 262.516,364.449 263.071 C 364.160 263.626,363.798 264.764,363.645 265.600 C 363.492 266.437,363.144 267.471,362.873 267.899 C 362.601 268.327,362.264 269.407,362.124 270.298 C 361.984 271.190,361.617 272.415,361.310 273.022 C 361.002 273.628,360.384 275.350,359.936 276.848 C 359.487 278.346,358.874 280.097,358.573 280.739 C 356.960 284.177,356.420 285.523,356.420 286.115 C 356.420 286.476,356.245 286.770,356.031 286.770 C 355.817 286.770,355.642 286.953,355.642 287.176 C 355.642 287.691,353.857 291.322,351.155 296.304 C 349.994 298.444,348.829 300.632,348.566 301.167 C 348.304 301.702,347.625 302.753,347.059 303.502 C 346.116 304.751,345.781 305.311,344.280 308.157 C 344.002 308.683,343.400 309.520,342.942 310.015 C 342.484 310.511,341.878 311.480,341.596 312.170 C 341.314 312.860,340.595 313.949,339.998 314.591 C 339.402 315.233,338.913 315.878,338.912 316.023 C 338.911 316.168,338.685 316.518,338.410 316.801 C 338.135 317.084,337.318 318.147,336.593 319.163 C 335.869 320.180,335.143 321.012,334.980 321.012 C 334.816 321.012,334.581 321.318,334.457 321.693 C 334.333 322.067,333.607 323.074,332.845 323.930 C 332.083 324.786,330.816 326.260,330.029 327.205 C 329.243 328.150,327.986 329.560,327.237 330.338 C 326.488 331.115,324.897 332.794,323.701 334.067 C 322.506 335.340,321.061 336.630,320.491 336.933 C 319.922 337.237,319.455 337.621,319.455 337.788 C 319.455 338.060,317.976 339.518,315.108 342.071 C 314.537 342.580,313.157 343.696,312.042 344.553 C 310.927 345.409,309.259 346.748,308.336 347.529 C 306.248 349.295,299.361 354.005,296.693 355.490 C 296.051 355.847,295.438 356.248,295.331 356.381 C 295.224 356.514,294.173 357.122,292.996 357.733 C 291.819 358.343,290.146 359.236,289.279 359.716 C 288.411 360.197,287.054 360.803,286.263 361.064 C 285.472 361.325,284.825 361.700,284.825 361.898 C 284.825 362.095,284.542 362.257,284.197 362.257 C 283.852 362.257,282.932 362.582,282.154 362.979 C 279.359 364.406,277.010 365.370,276.329 365.370 C 275.947 365.370,275.295 365.627,274.880 365.941 C 274.464 366.255,273.862 366.524,273.541 366.538 C 273.220 366.552,272.257 366.902,271.401 367.315 C 270.545 367.729,269.209 368.073,268.433 368.080 C 267.657 368.087,266.823 368.332,266.580 368.625 C 266.338 368.917,265.327 369.267,264.335 369.403 C 263.342 369.540,262.311 369.832,262.044 370.054 C 261.777 370.275,260.204 370.609,258.549 370.794 C 256.894 370.980,255.431 371.297,255.299 371.500 C 255.167 371.702,253.833 371.970,252.335 372.096 C 250.837 372.222,248.473 372.643,247.082 373.030 C 244.674 373.702,240.266 373.735,155.150 373.735 L 65.747 373.735 65.746 194.747 C 65.745 96.304,65.748 15.452,65.752 15.078 C 65.760 14.305,229.258 14.009,234.630 14.771 M204.280 69.701 C 180.758 69.967,175.854 70.231,174.189 71.323 C 173.633 71.687,172.895 71.984,172.547 71.984 C 172.200 71.984,170.749 72.528,169.324 73.191 C 167.898 73.855,166.338 74.551,165.856 74.738 C 165.375 74.925,164.981 75.246,164.981 75.451 C 164.981 75.655,164.597 75.945,164.128 76.094 C 163.374 76.333,162.018 77.316,158.784 79.966 C 156.732 81.648,154.384 84.264,153.979 85.321 C 153.837 85.690,153.552 85.992,153.346 85.992 C 153.140 85.992,152.860 86.341,152.724 86.768 C 152.589 87.195,152.271 87.769,152.017 88.043 C 151.073 89.067,149.805 91.034,149.805 91.479 C 149.805 91.731,149.478 92.658,149.077 93.537 C 147.391 97.238,146.987 98.341,146.639 100.191 C 146.437 101.263,146.102 103.058,145.894 104.180 C 145.329 107.225,145.583 285.701,146.154 286.419 C 146.392 286.719,146.688 287.990,146.810 289.242 C 146.933 290.495,147.307 291.822,147.641 292.191 C 147.976 292.561,148.249 293.047,148.249 293.272 C 148.249 293.906,150.277 298.187,150.850 298.763 C 151.131 299.046,151.362 299.450,151.362 299.662 C 151.362 300.000,152.317 301.396,154.752 304.616 C 155.135 305.122,155.858 305.910,156.361 306.367 C 156.863 306.824,158.031 307.931,158.956 308.827 C 159.881 309.723,161.659 311.124,162.906 311.940 C 164.154 312.756,165.406 313.643,165.689 313.911 C 165.972 314.178,166.520 314.397,166.906 314.397 C 167.293 314.397,167.827 314.660,168.093 314.981 C 168.360 315.302,168.775 315.565,169.017 315.567 C 169.258 315.568,169.981 315.850,170.623 316.194 C 171.265 316.538,172.753 317.070,173.930 317.376 C 175.107 317.683,176.683 318.097,177.432 318.296 C 179.840 318.937,231.335 318.782,231.874 318.132 C 232.584 317.278,232.290 292.305,231.565 291.858 C 231.270 291.676,225.867 291.504,219.558 291.476 C 210.115 291.434,207.942 291.324,207.265 290.849 C 206.812 290.532,206.109 290.272,205.702 290.272 C 204.658 290.272,200.488 287.405,199.059 285.705 C 198.399 284.921,197.548 283.959,197.167 283.567 C 196.786 283.175,196.370 282.335,196.243 281.700 C 196.116 281.065,195.867 280.545,195.689 280.545 C 194.635 280.545,194.562 275.086,194.547 194.883 C 194.532 112.287,194.566 109.356,195.574 108.520 C 195.868 108.276,196.109 107.695,196.109 107.229 C 196.109 106.732,197.074 105.343,198.439 103.872 C 199.721 102.491,200.772 101.248,200.774 101.108 C 200.776 100.969,201.304 100.671,201.946 100.447 C 202.588 100.224,203.113 99.870,203.113 99.662 C 203.113 99.454,203.672 99.161,204.355 99.011 C 205.039 98.861,205.805 98.531,206.058 98.277 C 207.032 97.303,213.578 96.810,222.610 97.029 L 231.408 97.243 231.852 96.269 C 232.476 94.899,232.469 72.012,231.844 70.641 C 231.452 69.781,231.148 69.650,229.541 69.650 C 228.523 69.650,227.457 69.604,227.172 69.549 C 226.887 69.493,216.586 69.562,204.280 69.701 M231.045 70.765 C 231.418 70.996,231.505 73.910,231.426 83.489 L 231.323 95.914 220.817 96.110 C 203.293 96.435,196.831 100.038,193.953 111.089 C 193.474 112.928,193.392 125.021,193.387 194.325 C 193.381 280.995,193.338 278.887,195.176 280.964 C 195.475 281.302,195.720 281.844,195.720 282.169 C 195.720 282.493,196.171 283.267,196.722 283.889 C 197.273 284.511,198.001 285.424,198.339 285.919 C 199.259 287.265,203.149 290.134,204.683 290.597 C 205.425 290.820,206.732 291.269,207.588 291.594 C 208.837 292.067,211.257 292.187,219.864 292.201 C 227.663 292.213,230.711 292.345,231.051 292.685 C 231.394 293.028,231.518 296.410,231.518 305.480 L 231.518 317.808 230.642 318.043 C 229.276 318.409,181.756 318.272,179.572 317.896 C 174.391 317.004,173.780 316.816,168.482 314.487 C 162.066 311.667,150.220 300.082,150.192 296.599 C 150.191 296.436,149.965 295.866,149.689 295.331 C 148.655 293.319,147.525 289.570,146.908 286.105 C 145.933 280.629,145.935 107.411,146.910 102.572 C 147.559 99.348,148.859 95.057,149.398 94.358 C 149.563 94.144,149.821 93.457,149.970 92.832 C 150.773 89.482,157.888 80.977,162.451 77.912 C 163.949 76.906,165.268 75.957,165.381 75.804 C 165.638 75.455,170.306 73.460,173.884 72.169 C 175.368 71.634,178.131 71.045,180.023 70.861 C 184.317 70.443,230.384 70.357,231.045 70.765 "
              stroke="none" fill="#a99cea" fill-rule="evenodd"></path>
    </g>
</svg>